<?xml version="1.0" encoding="iso-8859-1"?>
<!-- Generator: Adobe Illustrator 19.0.0, SVG Export Plug-In . SVG Version: 6.00 Build 0)  -->
<svg version="1.1" id="Layer_1" xmlns="http://www.w3.org/2000/svg" xmlns:xlink="http://www.w3.org/1999/xlink" x="0px" y="0px"
	 viewBox="0 0 480 480" style="enable-background:new 0 0 480 480;" xml:space="preserve">
<g>
	<g>
		<g>
			<path d="M240.907,310.841c20.924,0,37.947-17.005,37.947-37.907c0-17.77-12.308-32.715-28.854-36.795v-59.973
				c0-5.523-4.477-10-10-10s-10,4.477-10,10v60.473c-15.594,4.697-26.988,19.187-26.988,36.295
				C203.012,293.836,220.012,310.841,240.907,310.841z M240.907,255.031c9.896,0,17.947,8.031,17.947,17.903
				c0,9.874-8.051,17.907-17.947,17.907c-9.868,0-17.895-8.033-17.895-17.907C223.012,263.062,231.04,255.031,240.907,255.031z"/>
			<path d="M465.796,121.169l-78.613-78.594c-3.905-3.904-10.237-3.904-14.142,0.001c-3.905,3.906-3.904,10.237,0.001,14.142
				l29.672,29.665l-30.011,30.006C338.294,86.505,295.554,69.044,250,66.27v-0.952h48.181c16.508,0,34.901-12.967,34.901-31.575
				v-3.979C333.082,11.133,315.337,0,298.181,0H181.826c-17.129,0-27.355,11.127-27.355,29.764v3.979
				c0,19.181,10.738,31.575,27.355,31.575H230V66c-47.536,1.617-91.056,19.327-125.27,47.851L77.276,86.392l29.681-29.674
				c3.906-3.905,3.906-10.236,0.002-14.142s-10.236-3.907-14.142-0.001L56.088,79.294c-0.008,0.008-0.018,0.015-0.026,0.024
				c-0.008,0.009-0.016,0.018-0.024,0.026l-41.834,41.825c-3.906,3.905-3.906,10.236-0.002,14.142
				c1.953,1.953,4.512,2.93,7.072,2.93c2.559,0,5.118-0.976,7.07-2.928l34.788-34.78l26.855,26.86
				C52.961,164.822,30.06,216.252,30.06,272.935C30.061,387.11,122.952,480,237.131,480c114.187,0,207.085-92.89,207.085-207.066
				c0-53.595-20.216-104.075-57.041-142.731l29.684-29.679l34.797,34.789c1.953,1.952,4.511,2.928,7.07,2.928
				c2.559,0,5.119-0.977,7.072-2.93C469.703,131.405,469.702,125.073,465.796,121.169z M280.212,20h17.969
				c7.048,0,14.901,4.01,14.901,9.764v3.979c0,5.841-7.381,11.575-14.901,11.575h-17.969V20z M199.788,45.318h-17.962
				c-2.387,0-7.355,0-7.355-11.575v-3.979c0-9.764,3.573-9.764,7.355-9.764h17.962V45.318z M219.788,45.318V20h40.424v25.318
				H219.788z M237.131,130.54c78.528,0,142.416,63.878,142.416,142.394c0,78.515-63.888,142.391-142.416,142.391
				c-78.512,0-142.387-63.876-142.387-142.391C94.744,194.417,158.619,130.54,237.131,130.54z M424.216,272.933
				C424.216,376.082,340.29,460,237.131,460c-103.151,0-187.07-83.918-187.07-187.066c0-100.762,80.082-183.158,179.939-186.92
				v24.692c-86.244,3.746-155.256,75.074-155.256,162.228c0,89.543,72.846,162.391,162.387,162.391
				c89.557,0,162.416-72.848,162.416-162.391c0-85.214-65.983-155.304-149.547-161.885V86.314
				C347.178,92.949,424.216,174.108,424.216,272.933z"/>
		</g>
	</g>
</g>
<g>
</g>
<g>
</g>
<g>
</g>
<g>
</g>
<g>
</g>
<g>
</g>
<g>
</g>
<g>
</g>
<g>
</g>
<g>
</g>
<g>
</g>
<g>
</g>
<g>
</g>
<g>
</g>
<g>
</g>
</svg>
